<?xml version="1.0" standalone="no"?>
<!DOCTYPE svg PUBLIC "-//W3C//DTD SVG 20010904//EN"
 "http://www.w3.org/TR/2001/REC-SVG-20010904/DTD/svg10.dtd">
<svg version="1.0" xmlns="http://www.w3.org/2000/svg"
 width="649.000000pt" height="576.000000pt" viewBox="0 0 649.000000 576.000000"
 preserveAspectRatio="xMidYMid meet">

<g transform="translate(0.000000,576.000000) scale(0.100000,-0.100000)"
fill="#000000" stroke="none">
<path d="M1458 5727 c-42 -7 -80 -15 -84 -19 -4 -5 -18 -8 -31 -8 -27 0 -113
-55 -113 -72 0 -9 26 -7 62 7 11 5 15 -7 16 -55 1 -45 -2 -60 -11 -57 -6 2
-11 15 -9 28 2 22 1 22 -9 6 -14 -24 -18 -198 -4 -194 10 4 12 11 14 60 0 16
5 26 10 22 9 -5 8 -27 -2 -75 -5 -27 -17 -38 -35 -33 -15 4 -19 -1 -20 -26 0
-16 -5 -39 -11 -50 -6 -11 -11 -29 -11 -40 0 -11 -9 -36 -20 -56 -11 -20 -20
-42 -20 -49 0 -8 -10 -32 -23 -54 -18 -32 -24 -37 -35 -26 -18 19 -15 34 7 34
24 0 37 18 23 32 -6 6 -12 6 -16 -1 -13 -21 -28 -11 -22 14 5 18 2 25 -9 25
-8 0 -15 6 -15 13 0 6 -3 23 -7 37 -6 22 -5 23 9 12 14 -12 17 -7 25 40 5 29
5 55 1 56 -20 9 -5 23 20 20 23 -2 27 0 24 19 -2 12 1 24 7 27 5 4 6 18 2 34
-4 15 -6 33 -4 40 3 6 0 12 -5 12 -13 0 -22 -37 -18 -72 3 -30 -16 -54 -34
-43 -8 5 -7 11 1 21 8 10 9 18 2 25 -7 7 -6 23 4 51 10 31 11 43 3 48 -16 10
-8 45 10 45 8 1 14 6 13 13 -2 7 2 12 7 12 15 0 46 34 52 58 9 33 -4 26 -34
-18 -15 -22 -34 -40 -41 -40 -20 0 -40 -44 -32 -71 4 -17 3 -20 -3 -10 -8 11
-12 10 -21 -7 -6 -11 -11 -26 -11 -33 0 -6 -10 -33 -21 -58 -56 -121 -61 -147
-69 -420 -8 -275 -7 -279 44 -334 14 -15 26 -32 26 -37 0 -9 16 -28 96 -111
38 -39 41 -49 19 -49 -8 0 -15 5 -15 10 0 6 -7 10 -16 10 -13 0 -14 -3 -5 -14
10 -12 7 -13 -22 -4 -32 10 -35 15 -44 62 -9 51 -9 51 -17 -51 -6 -71 -5 -112
4 -138 l12 -36 20 26 c19 24 20 24 43 7 14 -9 25 -25 25 -34 1 -49 30 -66 30
-18 0 34 15 40 23 10 4 -17 10 -20 32 -14 27 7 27 6 20 -35 -4 -27 -3 -41 4
-41 6 0 11 9 11 20 0 11 4 20 10 20 5 0 14 -9 20 -20 6 -11 17 -20 24 -20 17
0 30 -36 27 -74 -2 -26 -1 -28 13 -17 8 7 19 10 25 7 5 -3 12 0 15 6 4 7 4
-18 1 -57 -3 -38 -5 -83 -5 -100 0 -23 -3 -27 -10 -15 -5 8 -10 27 -10 43 0
17 -5 27 -15 27 -8 0 -15 7 -15 15 0 8 3 14 8 13 4 -2 7 2 7 7 0 6 -3 9 -7 7
-5 -1 -8 2 -8 8 0 5 -4 10 -10 10 -6 0 -10 -35 -11 -82 0 -57 -3 -76 -9 -62
-12 30 -30 40 -41 23 -7 -9 -8 -5 -3 12 3 15 1 30 -5 33 -6 4 -11 34 -11 67 0
37 -4 59 -11 59 -8 0 -10 -23 -7 -71 3 -59 2 -68 -9 -53 -7 10 -13 44 -13 77
0 48 -3 58 -15 54 -8 -4 -17 -2 -20 3 -4 6 -1 10 4 10 19 0 12 22 -9 27 -13 4
-20 14 -20 30 0 18 -8 27 -30 34 -16 6 -28 15 -25 19 3 5 -4 14 -16 21 -22 11
-22 10 -16 -42 4 -29 11 -57 17 -63 5 -5 10 -19 10 -31 1 -11 30 -56 65 -100
35 -43 63 -81 61 -82 -2 -2 -22 3 -44 10 -23 8 -44 12 -47 9 -14 -14 -2 -32
29 -40 49 -14 96 -59 96 -93 0 -37 -13 -43 -49 -24 -33 17 -71 20 -71 6 0 -5
11 -12 25 -15 30 -8 94 -63 105 -90 4 -12 3 -26 -2 -33 -5 -6 -9 -30 -10 -52
0 -49 -6 -54 -41 -36 -36 19 -35 0 3 -35 35 -33 36 -37 11 -69 -17 -23 -19
-23 -42 -7 -29 20 -43 21 -36 2 4 -9 -1 -16 -10 -18 -14 -2 -12 -8 10 -32 43
-46 35 -122 -10 -97 -18 10 -73 -11 -73 -28 0 -21 13 -41 27 -41 10 0 13 -6 9
-17 -4 -10 3 -26 20 -45 15 -15 25 -30 22 -33 -8 -9 -77 28 -78 41 0 6 -6 17
-14 23 -8 7 -17 24 -21 38 -3 15 -14 38 -24 52 -10 14 -21 38 -25 54 -3 15
-11 27 -17 27 -6 0 -7 5 -4 10 4 6 -1 22 -9 35 -9 14 -14 25 -11 25 3 0 -1 12
-8 28 -19 37 -12 52 26 53 31 2 31 2 4 6 -16 3 -26 9 -24 16 6 18 -12 47 -28
47 -25 0 -19 -92 9 -153 38 -84 48 -115 42 -126 -4 -5 1 -14 9 -19 18 -10 48
-89 39 -103 -3 -5 -18 -1 -34 11 -15 11 -31 20 -35 20 -8 0 -54 53 -55 63 0 4
9 7 19 7 28 0 37 20 12 27 -12 3 -21 13 -21 24 0 11 -7 19 -15 19 -16 0 -30
-42 -21 -65 8 -21 -22 -19 -86 6 -75 29 -149 68 -176 92 -29 27 -132 34 -132
10 0 -11 7 -14 24 -9 16 4 29 0 41 -13 9 -11 23 -17 31 -14 10 4 12 0 8 -11
-5 -14 -1 -17 22 -14 22 2 28 -1 26 -13 -2 -13 6 -17 31 -17 19 0 48 -7 65
-16 18 -9 33 -16 34 -15 8 3 269 -121 278 -132 3 -4 16 -9 30 -13 14 -4 39
-14 55 -21 63 -29 133 -47 207 -55 42 -4 89 -15 105 -23 27 -15 105 -36 148
-40 11 -1 25 -5 31 -10 11 -6 29 19 26 36 -3 10 3 9 32 -4 13 -6 22 -17 20
-24 -3 -7 5 -15 16 -18 23 -6 19 -27 -6 -27 -8 0 -14 -7 -14 -15 0 -9 -8 -18
-17 -22 -10 -3 -26 -15 -35 -27 -14 -17 -20 -18 -27 -8 -7 12 -12 12 -30 1
-11 -8 -21 -19 -21 -25 0 -16 25 -35 35 -26 5 4 5 2 2 -4 -4 -7 -16 -14 -27
-17 -15 -4 -20 0 -20 14 0 10 -4 19 -10 19 -5 0 -10 6 -10 14 0 10 -20 18 -57
26 -78 15 -159 48 -213 87 -25 17 -88 47 -140 66 -84 30 -154 63 -185 87 -5 4
-19 10 -30 12 -11 3 -68 20 -126 37 -58 17 -123 31 -143 31 -23 0 -39 5 -42
15 -7 17 -40 20 -50 4 -4 -7 -21 -9 -48 -4 -22 4 -64 9 -91 10 -43 2 -53 -1
-68 -21 -20 -27 -8 -31 26 -10 35 22 84 28 91 11 3 -10 -1 -15 -12 -15 -28 0
-102 -52 -102 -72 0 -9 -4 -20 -10 -23 -5 -3 -10 -16 -10 -28 1 -22 1 -22 15
-3 8 11 15 28 15 38 0 12 12 24 33 33 37 15 45 12 27 -10 -11 -13 -8 -15 15
-15 24 0 26 -3 20 -22 -4 -13 -9 -38 -12 -55 -5 -29 -2 -33 17 -33 20 0 22 4
17 38 -12 69 11 102 47 67 11 -11 13 -29 9 -70 -4 -36 -2 -55 5 -55 6 0 12 17
14 38 2 23 8 37 17 37 15 0 54 -65 44 -74 -3 -3 -8 0 -10 7 -7 18 -21 15 -47
-11 -13 -12 -33 -29 -45 -37 -11 -8 -24 -23 -27 -33 -3 -9 -20 -34 -39 -54
-38 -41 -55 -40 -84 9 l-20 32 31 30 c20 18 27 31 20 34 -7 2 -19 -1 -27 -8
-21 -17 -35 -4 -35 33 -1 27 -3 30 -13 16 -7 -8 -20 -18 -30 -22 -29 -11 -53
-107 -27 -107 15 0 50 -38 48 -53 -2 -7 8 -12 24 -12 15 -1 30 -4 34 -8 4 -4
18 -7 30 -7 23 0 23 -2 17 -67 -6 -71 -22 -113 -55 -150 -19 -21 -20 -25 -6
-67 14 -41 13 -50 -4 -98 -10 -29 -23 -106 -29 -173 -6 -66 -15 -128 -20 -137
-12 -23 -12 -135 1 -143 6 -4 8 15 3 54 -3 38 -2 61 4 61 16 0 24 -116 11
-146 -9 -20 -9 -30 0 -45 8 -12 12 -72 12 -178 0 -143 8 -195 24 -159 3 9 11
5 23 -12 26 -37 92 -100 117 -111 22 -9 57 -30 66 -39 20 -20 160 -81 160 -70
0 5 -34 26 -76 47 -78 39 -97 58 -73 74 12 8 12 10 0 18 -9 6 -19 4 -28 -5 -8
-8 -21 -14 -29 -14 -21 0 -104 84 -104 106 0 10 -7 28 -15 38 -8 10 -12 23 -9
27 3 5 -2 9 -10 9 -17 0 -30 38 -23 67 4 14 5 14 6 -4 0 -13 7 -23 14 -23 6
-1 33 -20 59 -43 44 -39 180 -117 204 -117 6 0 19 -9 28 -19 10 -11 32 -23 50
-27 17 -3 51 -17 76 -29 58 -30 139 -54 220 -67 81 -13 108 -14 190 -5 86 10
105 29 25 25 l-60 -3 3 38 c4 43 -11 67 -40 67 -15 0 -18 -4 -13 -17 3 -10 9
-30 12 -45 5 -27 4 -28 -33 -27 -38 1 -38 1 -12 10 27 10 29 34 4 51 -7 5 -7
8 2 8 6 0 12 4 12 9 0 5 -21 11 -47 14 -27 3 -79 13 -118 22 -102 25 -121 25
-117 -2 4 -32 -63 -41 -123 -16 -25 10 -45 21 -45 24 0 3 12 19 26 34 18 20
22 31 14 39 -8 8 -18 1 -39 -23 -23 -27 -33 -32 -51 -26 -30 9 -126 71 -136
86 -7 11 14 33 40 42 8 3 7 8 -1 18 -10 10 -17 9 -37 -10 -23 -22 -25 -22 -49
-6 -32 20 -40 41 -27 66 13 24 21 24 54 -2 21 -16 26 -17 26 -5 0 8 -13 23
-30 33 -16 9 -30 20 -30 24 0 4 -9 5 -20 2 -22 -6 -29 20 -9 33 8 5 5 12 -9
23 -11 9 -23 32 -26 51 -5 33 -5 34 5 8 6 -16 14 -28 18 -28 4 0 28 -20 54
-45 27 -25 54 -45 62 -45 8 0 18 -6 22 -13 4 -6 30 -23 58 -37 27 -14 56 -31
63 -37 7 -7 24 -16 38 -19 13 -3 24 -9 24 -13 0 -19 186 -77 320 -100 147 -25
307 2 346 58 15 21 15 23 -2 36 -21 16 -74 20 -74 6 0 -5 14 -14 30 -20 39
-13 38 -27 -1 -35 -17 -3 -46 -13 -64 -22 -19 -9 -51 -14 -76 -12 -39 3 -44 6
-51 35 -5 19 -17 34 -29 38 -27 9 -33 1 -20 -23 15 -28 14 -52 -2 -52 -19 0
-47 33 -56 66 -6 24 -16 30 -79 47 -68 18 -73 18 -117 2 -25 -10 -45 -22 -45
-26 0 -14 -23 -10 -68 11 -22 11 -45 20 -50 20 -5 0 -15 7 -22 15 -13 16 3 26
65 41 24 6 26 8 10 12 -11 2 -26 9 -32 14 -9 7 -24 5 -50 -8 -47 -22 -66 -21
-91 4 -11 11 -28 25 -38 31 -18 11 -18 11 0 26 11 8 26 15 33 15 19 0 16 18
-5 29 -12 7 -24 4 -41 -10 -31 -25 -47 -24 -54 3 -8 28 8 38 47 31 21 -4 27
-3 22 5 -4 7 -14 12 -22 12 -11 0 -14 6 -9 23 4 15 3 18 -3 9 -12 -17 -43 24
-62 81 -17 54 -7 56 23 5 14 -24 35 -50 48 -58 12 -8 34 -24 48 -36 28 -22
156 -84 174 -84 6 0 0 12 -14 26 l-24 26 35 -4 c30 -3 35 -7 38 -31 4 -32 33
-48 157 -84 236 -70 418 -74 514 -12 52 34 47 36 -17 9 -51 -21 -146 -40 -200
-40 -56 0 -132 31 -132 54 0 11 -5 34 -12 52 -10 28 -16 32 -61 37 -27 4 -54
11 -61 16 -6 5 -29 13 -51 17 -22 4 -57 13 -78 20 -40 14 -107 7 -154 -18 -19
-9 -30 -7 -68 13 -59 32 -60 55 0 63 44 7 115 -9 115 -25 0 -4 29 -7 65 -6 36
1 65 5 65 8 0 14 -34 19 -81 13 -34 -5 -49 -3 -49 5 0 6 -7 11 -17 11 -9 0
-31 11 -49 25 -35 27 -64 33 -64 13 0 -12 -43 -38 -62 -38 -4 0 -8 20 -8 45 0
52 21 70 45 39 14 -18 14 -18 15 -1 0 10 -11 28 -25 41 -13 12 -24 31 -23 42
0 10 -3 27 -7 37 -5 13 -2 17 11 17 18 1 18 1 1 14 -16 13 -14 16 26 35 67 33
191 26 202 -10 17 -61 22 -56 -66 -62 -44 -3 -83 -8 -87 -12 -22 -22 93 -34
144 -15 36 14 43 5 16 -21 -25 -23 -18 -48 21 -73 28 -19 196 -68 207 -61 5 3
11 1 15 -5 11 -18 42 -11 48 11 6 21 10 22 87 15 44 -3 108 -14 141 -22 35 -9
73 -13 87 -9 l27 7 -23 9 c-37 14 -250 49 -298 49 -44 0 -44 0 -44 35 0 43 25
47 60 10 30 -32 86 -34 125 -3 26 20 31 21 94 8 36 -7 94 -21 128 -32 57 -18
64 -18 85 -4 22 16 22 16 -14 16 -20 0 -39 4 -42 9 -3 5 -20 11 -38 14 -18 2
-59 12 -91 21 -61 17 -119 20 -151 7 -22 -9 -245 34 -260 49 -6 6 -16 10 -23
10 -62 0 -301 172 -303 218 0 6 -6 12 -13 12 -8 0 -14 7 -14 15 0 23 9 18 42
-25 17 -21 36 -39 43 -40 18 0 15 8 -14 35 -61 56 23 62 108 8 32 -21 58 -42
58 -47 0 -31 -78 -47 -100 -21 -15 18 -30 19 -30 3 0 -7 17 -21 38 -30 20 -9
53 -25 72 -36 70 -39 107 -53 195 -73 110 -25 250 -35 260 -18 5 8 9 8 14 0 5
-8 27 -7 76 4 38 8 72 12 76 9 5 -3 17 0 29 6 11 5 28 14 39 19 10 5 36 13 57
16 22 4 47 9 57 12 14 4 17 -3 17 -41 0 -25 -4 -46 -10 -46 -5 0 -10 6 -10 14
0 15 -69 32 -79 19 -3 -4 -12 -8 -18 -8 -24 0 -18 -19 8 -25 40 -11 81 -41 75
-56 -10 -25 14 -15 57 25 52 47 83 65 92 51 3 -5 0 -10 -8 -10 -8 0 -22 -9
-33 -21 -18 -20 -18 -22 -1 -34 18 -13 23 -35 8 -35 -6 0 -13 5 -16 10 -13 22
-43 9 -59 -24 -9 -19 -26 -38 -37 -41 -20 -7 -20 -7 -1 -25 13 -13 18 -27 14
-49 -5 -36 -3 -36 -65 -14 -35 13 -50 14 -58 6 -9 -9 4 -19 48 -41 l59 -30 27
33 c14 18 29 45 33 59 5 22 3 28 -15 33 -11 3 -21 10 -21 15 0 6 6 8 13 5 39
-14 57 -17 57 -9 0 5 11 21 24 35 l25 27 7 -23 c9 -28 7 -33 -13 -29 -10 2
-14 -3 -11 -15 5 -27 40 -26 61 2 18 24 15 75 -4 75 -5 0 -9 5 -9 10 0 6 7 10
15 10 8 0 24 5 35 12 25 16 37 3 16 -18 -16 -15 -16 -17 4 -31 11 -8 32 -32
46 -54 13 -22 29 -37 34 -34 6 3 10 1 10 -5 0 -16 -40 -2 -67 23 -19 16 -25
18 -38 7 -8 -7 -15 -15 -15 -19 0 -8 40 -57 93 -113 21 -23 37 -50 37 -64 0
-24 19 -34 22 -11 3 26 5 54 7 103 1 43 5 53 21 57 33 9 20 69 -29 129 -19 24
-61 118 -53 118 4 0 15 -12 24 -27 17 -27 17 -27 18 -5 0 23 18 28 48 13 9 -5
35 -14 57 -19 22 -6 58 -15 80 -22 49 -13 239 -27 480 -35 269 -9 446 -24 474
-42 14 -9 34 -26 46 -39 12 -13 26 -24 31 -24 5 0 29 -21 54 -46 44 -45 48
-47 108 -48 34 -1 62 2 62 6 0 4 -13 8 -28 8 -34 0 -71 23 -53 34 6 4 9 12 5
17 -7 12 15 69 27 69 5 0 9 -14 9 -31 0 -22 9 -40 32 -61 30 -28 36 -30 97
-26 63 4 66 3 95 -29 17 -18 36 -33 43 -33 18 0 33 -34 33 -74 0 -77 58 -186
99 -186 11 0 9 5 -7 23 -37 39 -50 86 -47 167 3 110 2 106 25 85 11 -10 20
-22 20 -27 0 -6 9 -21 20 -35 11 -14 20 -35 20 -45 0 -14 5 -18 15 -14 11 4
15 -1 15 -17 0 -12 5 -29 11 -37 8 -11 9 -5 6 25 -2 22 2 55 10 72 11 27 19
33 43 33 17 0 38 -7 48 -16 55 -49 98 -75 121 -72 15 2 26 9 26 18 0 8 -6 14
-14 12 -14 -3 -41 15 -41 28 0 4 11 5 24 3 31 -6 58 34 34 51 -19 14 -34 106
-18 106 6 0 30 -9 52 -20 23 -11 43 -18 46 -16 8 9 -10 26 -28 26 -23 0 -35
29 -15 36 9 4 23 -3 33 -17 14 -16 24 -20 38 -15 19 8 19 8 0 15 -15 6 -16 10
-7 15 8 5 19 2 28 -7 13 -13 11 -18 -16 -46 -17 -17 -31 -38 -31 -46 0 -8 -11
-22 -25 -31 -26 -17 -34 -36 -12 -33 6 1 19 -1 27 -4 8 -3 33 -11 55 -16 34
-9 45 -19 73 -66 18 -30 35 -55 37 -55 2 0 -5 22 -15 50 -12 32 -35 65 -65 93
l-46 44 28 31 c15 18 34 32 43 32 22 0 86 -24 85 -32 0 -3 3 -10 8 -14 4 -4 7
-2 7 4 0 7 5 12 11 12 6 0 9 -7 5 -15 -3 -10 1 -15 12 -15 14 0 20 -15 30 -66
19 -100 17 -98 130 -145 48 -20 52 -24 52 -55 0 -18 -4 -44 -10 -58 -5 -15
-14 -54 -20 -89 -17 -101 15 -246 44 -199 3 4 0 28 -5 53 -13 55 -15 172 -3
190 8 13 12 101 17 375 2 109 -10 138 -51 128 -11 -3 -23 -1 -26 5 -4 6 1 11
11 11 11 0 24 5 29 10 14 14 44 2 44 -16 0 -8 5 -14 10 -14 6 0 10 11 10 25 0
25 -14 31 -60 26 -8 -1 -2 7 15 18 19 13 33 17 39 11 6 -6 18 -10 28 -10 12 0
18 -8 18 -23 0 -13 3 -27 8 -31 4 -4 12 -24 19 -44 l11 -37 -1 45 -2 45 75 12
c41 7 80 15 87 17 14 6 121 -20 137 -33 6 -4 31 -13 56 -21 25 -7 49 -17 55
-22 5 -4 17 -8 26 -8 9 0 22 -7 29 -15 17 -20 86 -20 94 0 4 10 -1 15 -14 15
-25 0 -26 18 -2 36 16 13 15 15 -8 33 -65 51 -143 79 -238 86 -52 3 -101 10
-110 14 -53 27 -96 41 -123 41 -17 0 -50 11 -75 25 -42 23 -54 25 -184 25 -77
0 -159 5 -182 11 -37 10 -56 8 -133 -12 -103 -26 -266 -33 -294 -12 -9 7 -37
13 -63 13 -27 0 -48 4 -48 8 0 12 -112 42 -161 42 -24 0 -69 9 -99 20 -30 11
-67 20 -82 20 -38 0 -74 18 -139 67 -30 24 -62 43 -71 43 -18 0 -119 37 -194
71 -27 12 -58 25 -69 29 -11 4 -38 15 -60 24 -22 8 -96 27 -165 42 -69 14
-165 35 -215 46 -49 10 -110 23 -135 28 -25 4 -98 20 -162 34 -65 14 -164 33
-220 41 -141 21 -148 23 -148 44 0 10 -7 24 -15 31 -8 7 -18 34 -21 61 -5 39
-14 55 -41 79 -34 30 -34 30 -16 55 10 13 30 29 46 34 15 6 30 17 33 26 9 22
24 19 24 -5 0 -11 5 -20 10 -20 6 0 10 9 10 19 0 11 5 23 11 27 8 5 10 -1 6
-17 -3 -13 -2 -33 2 -43 6 -15 10 -10 20 27 15 50 8 117 -12 117 -13 0 -46 87
-51 134 -2 18 -17 40 -42 63 -73 64 -107 81 -165 83 -72 3 -79 2 -79 -13 0
-17 38 -88 61 -113 11 -11 16 -23 13 -27 -8 -8 -34 11 -34 24 0 5 -8 17 -17
28 -10 10 -28 31 -40 47 -12 16 -37 47 -57 69 l-35 40 -1 -40 c0 -22 -3 -50
-6 -62 -4 -15 2 -28 25 -49 17 -15 31 -31 31 -35 0 -9 -58 -39 -76 -39 -9 0
-12 13 -9 45 5 45 -1 55 -22 34 -8 -8 -17 -5 -31 9 -12 12 -32 28 -47 38 -18
11 -24 22 -20 35 4 10 2 26 -3 36 -11 19 7 43 33 43 9 0 15 6 12 13 -2 6 -11
11 -21 9 -9 -2 -16 2 -16 8 0 13 17 12 65 -5 60 -22 84 -19 90 10 3 14 8 37
11 52 4 22 3 25 -9 14 -9 -6 -13 -21 -10 -32 5 -18 2 -20 -33 -17 -31 2 -38 7
-36 21 2 9 -1 17 -6 17 -5 0 -12 8 -16 18 -3 9 -9 23 -12 31 -5 11 -1 13 17 8
18 -5 29 -1 42 16 16 18 18 19 13 3 -9 -28 10 -44 50 -40 20 1 48 -2 63 -8 14
-5 55 -14 89 -18 79 -10 116 3 166 61 55 64 159 236 190 314 55 137 69 160
133 211 34 27 64 55 67 62 10 24 -30 12 -59 -18 -15 -16 -37 -28 -48 -27 -11
1 -22 -5 -25 -13 -5 -13 -3 -13 13 0 16 13 17 12 14 -4 -3 -12 -14 -20 -31
-22 -23 -2 -28 1 -28 19 0 27 -9 41 -36 55 -15 8 -24 8 -33 -1 -8 -8 -15 -7
-28 6 -9 9 -13 20 -9 24 4 5 53 10 109 12 92 3 104 5 124 27 12 13 29 24 37
24 8 0 25 10 38 23 39 40 58 92 58 164 0 43 5 72 14 82 8 9 17 45 20 81 4 36
12 87 18 114 16 74 -5 279 -38 352 -7 17 -16 54 -20 83 -11 93 -40 168 -82
216 -68 77 -220 166 -328 191 -38 8 -74 20 -80 25 -18 15 -204 19 -286 6z
m226 -27 c11 0 16 -3 12 -7 -4 -4 8 -13 26 -19 18 -6 31 -14 28 -18 -8 -12 63
-46 84 -39 13 3 17 1 13 -8 -2 -8 -10 -13 -16 -11 -17 3 -13 -18 4 -24 8 -4
21 -1 28 4 10 8 21 6 44 -8 18 -10 40 -16 52 -13 13 3 21 1 21 -6 0 -7 -4 -9
-10 -6 -5 3 -10 2 -10 -4 0 -5 5 -13 11 -17 15 -9 49 -91 49 -119 0 -13 5 -27
10 -30 14 -9 12 -72 -2 -78 -7 -2 -10 -8 -5 -12 10 -12 36 26 37 53 0 14 5 22
12 20 15 -5 30 -85 22 -111 -9 -29 -14 -83 -6 -71 4 6 16 14 26 18 15 5 17 9
8 18 -7 7 -12 18 -12 25 0 22 29 14 46 -12 16 -25 44 -34 44 -15 0 6 5 10 11
10 5 0 8 -4 5 -9 -3 -5 0 -11 8 -14 8 -3 16 -28 19 -64 3 -32 11 -94 18 -138
12 -78 14 -219 3 -237 -3 -5 -11 -4 -18 1 -7 6 -16 8 -19 4 -4 -3 -32 0 -62 7
-46 11 -54 16 -49 32 7 23 0 23 -22 1 -15 -16 -17 -16 -30 2 -14 18 -14 18
-14 -1 0 -11 -6 -26 -12 -33 -11 -11 -7 -12 17 -7 19 4 46 1 70 -9 21 -9 58
-17 82 -18 43 -2 43 -2 43 -39 0 -37 -13 -51 -23 -24 -3 7 -20 16 -39 20 -39
8 -150 -3 -143 -15 3 -4 29 -5 59 -2 46 5 56 3 74 -18 18 -18 22 -34 21 -83
l-1 -61 -12 48 c-9 41 -17 51 -46 63 -19 9 -42 19 -50 23 -16 9 -104 -16 -140
-40 -14 -8 -46 -23 -72 -33 -46 -17 -47 -17 -85 7 -21 13 -44 22 -51 19 -19
-6 -42 17 -42 44 0 13 -4 24 -9 24 -5 0 -11 10 -15 23 -10 38 -84 107 -116
107 -17 0 -6 -25 11 -25 25 -1 69 -37 69 -57 0 -19 -2 -19 -22 -6 -60 38 -202
52 -273 27 -41 -15 -75 -14 -75 1 0 5 7 7 16 3 13 -5 15 -2 10 14 -12 36 14
45 117 37 53 -3 101 -3 108 2 20 12 -65 33 -164 40 -79 6 -121 21 -89 32 7 2
12 9 12 15 0 8 -4 7 -12 -1 -19 -19 -28 -14 -28 12 0 14 -4 36 -10 50 -6 16
-6 27 0 31 20 12 11 33 -11 28 -20 -6 -21 -11 -16 -64 4 -44 1 -61 -9 -70 -20
-17 -2 -33 37 -33 28 -1 32 -4 34 -34 2 -26 0 -32 -14 -27 -24 7 -42 -29 -49
-98 -4 -44 -2 -58 7 -53 6 4 22 -5 37 -23 13 -16 34 -33 44 -36 11 -4 20 -13
20 -21 0 -8 7 -14 15 -14 8 0 15 -4 15 -10 0 -5 7 -10 14 -10 8 0 27 -11 42
-25 15 -14 35 -25 44 -25 27 0 133 -39 141 -52 5 -8 12 -6 24 6 18 18 36 17
43 -2 2 -8 -3 -10 -15 -5 -12 4 -10 0 7 -14 l25 -21 -25 -21 c-14 -11 -35 -20
-47 -21 -12 0 -26 -6 -30 -13 -14 -22 -56 -47 -81 -47 -18 0 -23 5 -20 22 4
26 -21 36 -99 37 -41 1 -56 5 -65 21 -7 11 -18 20 -24 20 -7 0 -29 25 -49 55
-20 31 -45 61 -56 68 -10 6 -19 17 -19 24 0 7 -4 13 -9 13 -11 0 -35 85 -28
102 3 7 6 4 6 -8 1 -12 8 -27 16 -34 8 -7 15 -23 15 -36 0 -24 14 -32 25 -14
3 5 -2 41 -11 80 -15 61 -16 82 -6 148 7 42 14 106 17 142 8 98 16 132 36 162
11 14 19 29 19 33 0 4 13 23 30 41 16 19 35 55 41 79 11 45 23 57 32 33 3 -10
8 -10 17 -2 9 9 9 17 1 32 -12 22 -16 308 -5 336 3 9 15 16 25 16 10 0 19 4
19 8 0 5 6 17 14 28 12 16 31 20 118 25 56 3 112 4 123 3 11 -2 29 -4 39 -4z
m-309 -40 c-3 -5 -15 -10 -26 -10 -11 0 -17 5 -14 10 3 6 15 10 26 10 11 0 17
-4 14 -10z m635 -130 c0 -5 -4 -10 -10 -10 -5 0 -10 5 -10 10 0 6 5 10 10 10
6 0 10 -4 10 -10z m176 -242 c3 -23 1 -38 -6 -38 -5 0 -10 7 -10 15 0 9 -7 18
-15 21 -19 8 -19 24 0 24 11 0 12 5 5 24 -5 13 -6 27 -2 30 8 9 23 -30 28 -76z
m-1097 30 c-2 -63 -10 -88 -25 -88 -8 0 -14 5 -14 11 0 8 -6 7 -17 -2 -15 -13
-16 -11 -10 17 7 37 45 104 58 104 6 0 9 -19 8 -42z m-39 -114 c0 -22 -2 -25
-15 -14 -12 10 -13 16 -4 26 16 20 19 18 19 -12z m20 -110 c0 -27 -4 -43 -10
-39 -5 3 -10 24 -10 46 0 21 5 39 10 39 6 0 10 -21 10 -46z m20 -297 c17 -45
28 -117 20 -122 -4 -3 -11 14 -14 38 -7 45 -39 97 -53 84 -4 -5 0 -22 10 -38
9 -17 17 -37 17 -44 0 -16 -30 -29 -42 -17 -16 16 -18 94 -3 115 7 10 11 26 8
34 -5 13 -2 13 20 -1 14 -10 31 -32 37 -49z m200 -120 c0 -24 -3 -28 -10 -17
-13 20 -13 63 0 55 6 -3 10 -21 10 -38z m-60 3 c0 -11 -4 -20 -9 -20 -5 0 -7
9 -4 20 3 11 7 20 9 20 2 0 4 -9 4 -20z m610 -135 c21 7 27 -4 10 -21 -5 -5
-10 -28 -12 -51 -2 -25 -9 -45 -19 -52 -14 -8 -18 -4 -23 25 -8 41 -26 45 -26
7 0 -16 -3 -38 -6 -50 -6 -20 -3 -23 25 -23 17 0 31 -4 31 -9 0 -12 -33 -20
-64 -14 -23 5 -26 10 -26 49 0 24 -5 53 -12 63 -16 27 -3 51 29 51 21 0 24 3
15 12 -21 21 -13 27 23 17 20 -6 45 -7 55 -4z m-324 -60 c32 -13 53 -24 46
-25 -25 0 -142 34 -142 42 0 15 36 8 96 -17z m138 -20 c-4 -9 -19 -15 -42 -15
-39 0 -34 15 8 23 14 2 28 5 32 6 4 0 5 -6 2 -14z m46 -26 c0 -11 -4 -18 -10
-14 -5 3 -7 12 -3 20 7 21 13 19 13 -6z m-510 -52 c13 -5 13 -6 -1 -6 -8 -1
-24 6 -35 15 -19 15 -19 15 1 6 11 -5 27 -12 35 -15z m670 3 c0 -11 -4 -20
-10 -20 -5 0 -10 9 -10 20 0 11 5 20 10 20 6 0 10 -9 10 -20z m0 -34 c0 -3 -4
-8 -10 -11 -5 -3 -10 -1 -10 4 0 6 5 11 10 11 6 0 10 -2 10 -4z m-99 -112 c-9
-32 -8 -37 10 -41 22 -6 24 -14 8 -30 -15 -15 15 -83 36 -83 17 0 19 12 5 26
-11 11 -3 44 10 44 14 0 20 -31 14 -71 -4 -21 -10 -36 -15 -33 -5 3 -9 -11 -9
-30 0 -38 -14 -55 -27 -32 -5 10 -16 13 -31 9 -30 -8 -28 -21 5 -25 37 -4 42
-34 9 -49 -28 -13 -35 -39 -11 -39 8 0 15 -5 15 -11 0 -5 -5 -7 -10 -4 -6 4
-16 2 -23 -3 -19 -15 -87 -25 -87 -12 0 5 12 10 28 10 38 0 60 15 33 23 -12 3
-24 1 -27 -4 -3 -5 -17 -6 -30 -3 -18 5 -25 3 -24 -7 4 -28 0 -38 -14 -33 -18
7 -26 -18 -16 -53 4 -15 9 -22 9 -15 1 7 12 17 26 22 14 5 25 14 25 20 0 5 5
10 11 10 7 0 9 -10 5 -25 -5 -19 -2 -25 9 -25 11 0 15 6 10 19 -4 15 0 20 25
23 31 5 44 -17 16 -28 -7 -3 -25 -27 -40 -54 -32 -59 -39 -63 -91 -66 -46 -3
-75 17 -75 52 0 13 -4 26 -10 29 -6 4 -10 -5 -10 -19 0 -51 -17 -24 -31 48
-12 59 -12 78 -3 91 11 15 14 14 30 -10 10 -15 23 -24 31 -21 8 3 16 -1 20
-10 5 -12 8 -12 20 6 15 22 10 40 -12 40 -20 0 -115 90 -115 109 1 14 2 14 11
-2 5 -9 27 -26 48 -37 21 -10 41 -27 45 -36 4 -12 10 -14 17 -7 18 18 -7 60
-40 68 -17 4 -31 13 -31 20 0 23 18 27 25 5 7 -22 35 -28 35 -6 0 7 14 16 30
20 17 3 30 11 30 17 0 6 -7 8 -15 5 -24 -9 -32 24 -10 40 10 8 16 16 13 19 -3
3 -11 -1 -18 -10 -12 -14 -40 -21 -40 -10 0 3 8 17 17 31 15 24 15 27 1 35
-10 6 -14 17 -10 31 5 19 2 21 -31 15 -30 -5 -37 -3 -37 11 0 14 53 58 85 71
6 2 22 12 37 22 34 24 54 24 61 -1 5 -21 -14 -42 -21 -22 -10 30 -22 -5 -22
-62 0 -35 -5 -67 -12 -74 -9 -9 -8 -12 4 -12 9 0 19 9 23 20 3 11 12 19 18 17
8 -1 11 10 10 31 -1 31 1 33 23 28 19 -5 24 -2 24 13 0 11 4 30 9 43 5 13 13
32 17 43 7 18 8 17 12 -7 2 -15 -1 -43 -7 -64z m104 -6 c16 -35 35 -71 43 -81
19 -22 9 -34 -13 -16 -39 33 -55 54 -51 66 3 7 -1 19 -9 26 -13 14 -18 31 -16
55 2 26 18 9 46 -50z m102 -1 c7 -14 8 -30 2 -38 -11 -18 -25 -4 -34 34 -9 35
17 38 32 4z m-667 -7 c0 -5 -4 -10 -9 -10 -6 0 -13 5 -16 10 -3 6 1 10 9 10 9
0 16 -4 16 -10z m230 -91 c0 -11 7 -19 18 -20 17 -1 -20 -16 -45 -18 -16 -1
-17 23 -2 50 12 23 29 16 29 -12z m428 -14 c0 -14 -4 -25 -9 -25 -10 0 -11 12
-3 34 9 22 12 20 12 -9z m-821 -27 c-3 -7 -5 -2 -5 12 0 14 2 19 5 13 2 -7 2
-19 0 -25z m381 -44 c-11 -19 -23 -32 -26 -29 -8 7 30 75 39 69 5 -2 -1 -20
-13 -40z m38 -31 c-11 -11 -19 6 -11 24 8 17 8 17 12 0 3 -10 2 -21 -1 -24z
m-136 -55 c0 -36 -4 -35 -14 5 -4 16 -2 27 4 27 5 0 10 -14 10 -32z m-23 -200
c-3 -8 -6 -5 -6 6 -1 11 2 17 5 13 3 -3 4 -12 1 -19z m-157 -364 c6 -14 10
-39 10 -55 0 -18 4 -28 10 -24 6 4 8 11 5 16 -10 15 32 10 45 -6 7 -8 19 -15
26 -15 22 0 16 -24 -11 -50 l-25 -23 -35 19 c-41 22 -49 40 -40 88 6 29 4 35
-14 41 -27 8 -27 35 -1 35 13 0 24 -10 30 -26z m110 -54 c0 -5 -4 -10 -10 -10
-5 0 -10 5 -10 10 0 6 5 10 10 10 6 0 10 -4 10 -10z m300 -76 c39 -45 74 -124
62 -136 -10 -10 -52 40 -52 60 0 6 -3 12 -7 14 -7 2 -22 31 -51 91 -10 21 20
2 48 -29z m120 -11 c0 -17 -6 -16 -30 4 -28 24 -25 33 5 20 14 -7 25 -18 25
-24z m-210 -4 c11 -6 9 -10 -11 -19 -22 -10 -31 -9 -53 5 -14 9 -23 21 -21 26
6 9 60 2 85 -12z m-946 -151 c11 -10 22 -18 25 -18 3 0 19 -18 35 -40 17 -22
33 -40 36 -40 4 0 12 12 19 27 13 29 25 23 35 -18 5 -24 2 -27 -39 -39 -25 -7
-56 -23 -70 -36 -33 -30 -35 -30 -35 2 0 14 4 23 9 20 5 -3 14 1 21 9 10 12 9
15 -4 15 -10 0 -19 15 -27 43 -9 37 -16 46 -46 58 -38 15 -63 43 -63 71 0 16
5 15 43 -9 23 -16 51 -36 61 -45z m988 30 c36 -17 54 -78 23 -78 -8 0 -15 7
-15 15 0 8 -4 15 -10 15 -5 0 -10 9 -10 20 0 11 -7 20 -15 20 -8 0 -15 5 -15
10 0 13 10 13 42 -2z m-699 -47 c4 -4 10 -24 14 -44 5 -33 3 -37 -15 -37 -11
0 -24 -4 -27 -10 -3 -5 -18 -10 -34 -10 -23 0 -28 6 -39 45 -16 59 -15 63 6
68 21 6 84 -2 95 -12z m621 -16 c3 -8 17 -15 32 -15 22 0 24 -3 15 -14 -11
-13 -17 -12 -47 6 -19 11 -31 24 -28 29 8 14 21 11 28 -6z m-457 -114 c8 -12
32 -30 54 -41 21 -11 39 -25 39 -30 0 -6 7 -10 15 -10 9 0 18 -7 21 -15 4 -8
12 -15 18 -15 7 0 21 -7 32 -15 16 -13 17 -16 4 -25 -27 -18 -54 -10 -128 34
-89 54 -121 90 -103 117 9 16 9 21 -4 25 -8 3 -12 10 -9 15 6 11 40 -11 61
-40z m-280 -63 c10 -8 63 -112 63 -124 0 -2 -8 1 -19 7 -23 15 -49 6 -59 -22
-7 -19 -9 -19 -21 -5 -8 9 -19 16 -25 16 -6 0 -22 22 -35 49 -25 51 -23 87 7
93 25 5 75 -3 89 -14z m894 -1 c-1 -12 -15 -9 -19 4 -3 6 1 10 8 8 6 -3 11 -8
11 -12z m-1361 -55 c0 -13 -12 -22 -22 -16 -10 6 -1 24 13 24 5 0 9 -4 9 -8z
m1180 -17 c21 -11 22 -15 8 -20 -29 -11 -73 -1 -76 18 -4 21 31 23 68 2z m160
5 c-8 -5 -24 -9 -35 -9 l-20 0 20 9 c11 5 27 9 35 9 13 1 13 0 0 -9z m47 -6
c-3 -3 -12 -4 -19 -1 -8 3 -5 6 6 6 11 1 17 -2 13 -5z m-282 -40 c12 -5 12 -9
-4 -23 -36 -30 -36 -58 1 -91 21 -20 40 -29 52 -26 27 7 84 -21 103 -50 8 -13
22 -24 31 -24 27 0 52 -31 52 -65 0 -30 -4 -34 -37 -41 -21 -4 -54 -7 -73 -5
-39 3 -66 20 -34 22 44 3 83 16 107 37 24 21 21 32 -8 32 -18 0 -25 -5 -25
-20 0 -18 -7 -20 -55 -20 -50 0 -56 2 -65 25 -5 14 -16 25 -24 25 -7 0 -19 7
-26 15 -7 8 -17 12 -22 9 -20 -12 -122 -4 -130 10 -4 7 -21 19 -38 26 -31 13
-38 41 -22 82 7 17 76 68 92 68 6 0 10 7 10 16 0 14 8 16 50 10 28 -4 57 -9
65 -12z m-470 -4 c3 -5 -3 -10 -14 -10 -12 0 -21 5 -21 10 0 6 6 10 14 10 8 0
18 -4 21 -10z m638 -17 c-7 -2 -21 -2 -30 0 -10 3 -4 5 12 5 17 0 24 -2 18 -5z
m-493 -14 c84 -13 96 -25 80 -74 -11 -33 -10 -39 9 -56 11 -10 26 -19 33 -20
7 0 4 -4 -7 -9 -18 -8 -17 -9 7 -9 15 -1 29 -5 32 -10 8 -12 105 -58 139 -65
34 -8 36 -26 2 -26 -30 0 -70 17 -111 47 -23 17 -44 23 -85 23 -30 0 -59 4
-65 10 -5 5 -52 13 -102 16 -85 7 -95 5 -122 -15 -16 -12 -41 -26 -55 -31 -21
-8 -25 -16 -25 -49 0 -57 34 -94 156 -171 13 -8 24 -18 24 -22 0 -15 -31 -8
-68 16 -20 14 -54 28 -74 31 -27 5 -43 17 -63 46 -15 21 -36 41 -46 44 -11 4
-16 11 -13 17 4 6 -1 8 -15 3 -15 -4 -33 4 -68 30 -29 22 -53 33 -62 29 -30
-13 -59 -16 -64 -7 -3 4 -8 26 -13 48 -7 38 -6 39 12 25 26 -20 62 -40 73 -40
5 0 11 10 13 23 2 16 20 30 65 52 33 17 68 36 77 44 9 7 22 11 30 8 10 -4 13
-1 9 9 -3 8 1 14 10 14 8 0 17 6 19 12 5 15 141 66 178 67 14 0 54 -4 90 -10z
m401 -13 c-10 -12 -7 -18 19 -31 35 -18 55 -11 27 9 -35 26 -23 28 170 19 103
-5 103 -5 97 -29 -5 -18 -1 -26 16 -32 19 -7 20 -10 6 -21 -9 -7 -21 -9 -28
-5 -7 5 -28 9 -46 10 -25 1 -32 -3 -27 -14 4 -12 1 -12 -17 2 -13 9 -34 22
-48 28 -35 17 -34 16 -22 30 8 10 3 13 -19 15 -34 3 -37 -7 -9 -32 11 -10 20
-25 20 -34 0 -13 -2 -13 -9 -2 -5 7 -28 15 -52 16 -24 1 -45 7 -47 14 -2 6
-16 11 -31 11 -28 0 -85 42 -74 54 4 3 24 6 46 6 33 0 38 -2 28 -14z m588 -62
c9 -8 -85 -2 -104 6 -13 6 2 7 40 3 33 -3 62 -7 64 -9z m-101 -25 c2 -5 12 -9
23 -9 10 0 19 -4 19 -10 0 -5 -14 -10 -31 -10 -16 0 -28 4 -24 9 5 8 -20 19
-80 35 -11 3 5 3 35 0 30 -3 57 -9 58 -15z m-308 1 c0 -5 -7 -10 -15 -10 -8 0
-15 5 -15 10 0 6 7 10 15 10 8 0 15 -4 15 -10z m503 3 c-7 -2 -21 -2 -30 0
-10 3 -4 5 12 5 17 0 24 -2 18 -5z m-99 -18 c4 -11 21 -15 63 -15 51 0 56 -2
42 -15 -17 -17 -70 -6 -122 26 -28 16 -29 19 -11 19 12 0 24 -7 28 -15z m295
-31 c36 -7 45 -44 12 -44 -11 0 -22 -4 -25 -9 -6 -9 -88 -6 -165 5 -30 4 -39
9 -30 15 22 14 79 11 79 -4 0 -13 41 -13 98 -1 40 8 13 24 -43 24 -30 0 -57 5
-60 10 -7 11 83 14 134 4z m81 -6 c0 -11 -12 -10 -30 2 -12 7 -10 9 8 7 12 0
22 -5 22 -9z m-315 -18 c8 -13 -55 -13 -75 0 -11 7 -4 10 27 10 23 0 45 -4 48
-10z m438 3 c-31 -6 -29 -18 3 -20 25 -1 52 -18 43 -27 -8 -8 -79 19 -79 30 0
17 11 24 34 23 19 -2 19 -2 -1 -6z m82 -13 c-3 -5 -13 -10 -21 -10 -8 0 -14 5
-14 10 0 6 9 10 21 10 11 0 17 -4 14 -10z m-590 -24 c95 -15 182 -38 215 -55
9 -5 35 -12 59 -16 24 -4 59 -14 77 -21 18 -8 47 -14 64 -14 16 0 30 -3 30 -8
0 -7 60 -25 140 -41 20 -4 44 -13 55 -19 16 -9 0 -10 -70 -4 -113 9 -306 8
-451 -2 -109 -7 -215 1 -296 24 -28 8 -42 20 -54 45 -9 19 -20 35 -24 35 -12
0 -39 62 -33 77 3 8 14 11 28 7 13 -3 26 0 30 6 9 14 73 10 230 -14z m455 14
c0 -5 -14 -10 -31 -10 -17 0 -28 4 -24 10 3 6 17 10 31 10 13 0 24 -4 24 -10z
m202 -7 c-10 -4 -10 -9 3 -23 9 -10 23 -16 30 -14 7 3 16 1 20 -5 9 -16 -20
-14 -62 4 -46 19 -53 19 -54 -2 0 -15 -2 -15 -8 2 -9 23 18 43 59 43 14 0 19
-2 12 -5z m97 -8 c-10 -10 -22 -13 -35 -8 -17 6 -17 8 6 14 40 11 45 10 29 -6z
m-1099 -5 c0 -5 -7 -10 -15 -10 -8 0 -15 5 -15 10 0 6 7 10 15 10 8 0 15 -4
15 -10z m703 -5 c1 -6 -11 -11 -28 -12 -16 -1 -22 1 -12 3 9 3 17 10 17 16 0
12 21 6 23 -7z m-678 -14 c-25 -25 -80 -40 -73 -21 2 8 14 14 26 15 13 1 28 7
34 13 7 7 17 12 22 12 6 0 2 -9 -9 -19z m1108 12 c-7 -2 -13 -12 -13 -21 0
-13 -3 -13 -12 -4 -10 10 -10 15 2 22 8 5 20 9 25 9 6 0 4 -3 -2 -6z m-358
-13 c-28 -12 -55 -12 -55 0 0 6 17 10 38 9 30 0 33 -2 17 -9z m-1417 -9 c9 -5
36 -11 59 -13 23 -3 49 -13 58 -22 13 -12 26 -14 58 -9 38 6 41 5 28 -10 -12
-16 -8 -17 45 -17 69 0 159 -24 132 -35 -9 -3 -27 -1 -39 5 -19 11 -24 10 -35
-5 -18 -24 2 -68 28 -62 20 6 25 -9 6 -16 -10 -4 -9 -8 2 -16 9 -7 10 -11 3
-11 -6 0 -15 5 -18 10 -8 13 -52 13 -59 1 -4 -5 7 -12 24 -16 49 -11 34 -23
-25 -23 -38 0 -58 5 -64 16 -6 11 -10 12 -16 2 -4 -7 -2 -16 6 -21 26 -16 2
-18 -50 -4 -29 7 -63 21 -76 29 -13 9 -33 16 -45 16 -11 0 -20 5 -20 10 0 6
-7 10 -15 10 -9 0 -25 9 -37 20 -12 11 -18 20 -13 20 5 0 -1 7 -13 16 -12 8
-20 20 -17 25 4 5 -3 9 -14 9 -12 0 -21 5 -21 10 0 6 -9 10 -20 10 -11 0 -20
7 -20 15 0 8 -6 15 -14 15 -21 0 -27 28 -8 39 21 13 167 14 190 2z m1537 -1
c4 -6 -6 -10 -22 -10 -22 0 -25 2 -13 10 19 12 27 12 35 0z m285 -25 c0 -14
-4 -25 -10 -25 -5 0 -10 4 -10 9 0 5 -3 16 -6 25 -4 11 -1 16 10 16 10 0 16
-9 16 -25z m-2400 5 c0 -5 -2 -10 -4 -10 -3 0 -8 5 -11 10 -3 6 -1 10 4 10 6
0 11 -4 11 -10z m2215 -10 c3 -5 -1 -10 -9 -10 -9 0 -16 5 -16 10 0 6 4 10 9
10 6 0 13 -4 16 -10z m-2258 -37 c-3 -3 -11 -2 -17 2 -9 6 -9 10 1 16 14 8 27
-7 16 -18z m2498 17 c-3 -5 -10 -10 -16 -10 -5 0 -9 5 -9 10 0 6 7 10 16 10 8
0 12 -4 9 -10z m-95 -10 c0 -5 -4 -10 -10 -10 -5 0 -10 5 -10 10 0 6 5 10 10
10 6 0 10 -4 10 -10z m155 -10 c4 -6 -5 -10 -20 -10 -15 0 -24 4 -20 10 3 6
12 10 20 10 8 0 17 -4 20 -10z m-2585 -10 c0 -6 -4 -18 -10 -28 -5 -9 -15 -30
-21 -47 -6 -17 -13 -24 -16 -17 -6 14 28 102 40 102 4 0 7 -5 7 -10z m1360 0
c12 -8 11 -10 -7 -10 -12 0 -25 5 -28 10 -8 13 15 13 35 0z m-1260 -45 c12
-19 26 -35 31 -35 5 0 9 -5 9 -10 0 -12 -27 -24 -77 -35 -31 -6 -33 -5 -33 20
0 32 26 95 39 95 5 0 19 -16 31 -35z m1078 28 c-10 -2 -28 -2 -40 0 -13 2 -5
4 17 4 22 1 32 -1 23 -4z m-658 -14 c0 -5 5 -7 12 -3 7 4 8 3 4 -5 -6 -9 -12
-9 -24 1 -10 7 -19 14 -21 15 -2 2 3 3 12 3 10 0 17 -5 17 -11z m2223 -16 c9
-3 17 -9 17 -14 0 -12 -67 -11 -75 1 -10 16 5 32 24 25 9 -4 24 -10 34 -12z
m-1483 -10 c3 -3 -4 -11 -14 -19 -26 -19 -95 -18 -102 1 -5 11 -20 13 -75 9
-41 -3 -69 -1 -69 5 0 5 6 12 13 14 14 6 240 -3 247 -10z m1338 -2 c10 -6 10
-10 -3 -21 -20 -16 -65 -110 -65 -135 0 -37 -11 -5 -14 39 -2 33 2 51 16 66
10 11 18 23 17 27 -5 32 19 44 49 24z m-1243 -21 c-3 -5 -11 -10 -16 -10 -6 0
-7 5 -4 10 3 6 11 10 16 10 6 0 7 -4 4 -10z m-235 -9 c0 -14 -22 -19 -60 -13
-29 4 -32 6 -15 13 28 11 75 11 75 0z m995 -1 c4 -6 -5 -10 -19 -10 -14 0 -26
5 -26 10 0 6 9 10 19 10 11 0 23 -4 26 -10z m72 -6 c-3 -3 -12 -4 -19 -1 -8 3
-5 6 6 6 11 1 17 -2 13 -5z m-1857 -14 c0 -5 -2 -10 -4 -10 -3 0 -8 5 -11 10
-3 6 -1 10 4 10 6 0 11 -4 11 -10z m840 -21 c0 -5 -4 -9 -10 -9 -5 0 -10 7
-10 16 0 8 5 12 10 9 6 -3 10 -10 10 -16z m1823 7 c24 -19 23 -72 -3 -86 -63
-34 -108 21 -61 73 29 30 38 32 64 13z m-1030 -3 c-7 -2 -19 -2 -25 0 -7 3 -2
5 12 5 14 0 19 -2 13 -5z m-670 -10 c-7 -2 -19 -2 -25 0 -7 3 -2 5 12 5 14 0
19 -2 13 -5z m-808 -17 c11 -8 25 -12 32 -9 7 3 13 0 13 -6 0 -14 -45 -14 -71
0 -11 5 -17 14 -14 20 8 12 18 11 40 -5z m125 -12 c0 -2 -7 -4 -15 -4 -8 0
-15 4 -15 10 0 5 7 7 15 4 8 -4 15 -8 15 -10z m1335 -5 c14 -14 -26 -10 -60 6
l-30 13 40 -5 c22 -3 44 -10 50 -14z m-165 7 c0 -3 -4 -8 -10 -11 -5 -3 -10
-1 -10 4 0 6 5 11 10 11 6 0 10 -2 10 -4z m979 -15 c13 -24 63 -58 55 -37 -4
11 0 13 15 9 12 -3 21 -9 21 -14 0 -5 9 -9 20 -9 12 0 20 -7 20 -16 0 -12 -5
-14 -17 -9 -10 4 -31 7 -47 6 -18 -1 -38 7 -53 20 -25 24 -44 19 -24 -5 10
-12 7 -22 -16 -51 -15 -19 -31 -35 -34 -35 -3 0 -11 21 -16 47 -12 53 -4 73
28 73 11 0 18 3 18 8 -6 34 14 43 30 13z m41 -2 c0 -5 -4 -9 -10 -9 -5 0 -10
7 -10 16 0 8 5 12 10 9 6 -3 10 -10 10 -16z m460 -14 c9 -11 0 -13 -49 -12
-36 1 -65 -3 -73 -11 -15 -15 -40 -15 -72 0 -20 9 -23 14 -15 25 9 10 15 10
25 2 11 -9 14 -8 14 1 0 8 11 10 38 5 28 -4 42 -2 51 9 9 11 19 12 41 4 16 -5
34 -16 40 -23z m-3327 -26 c-24 -40 -36 -37 -15 5 9 19 20 32 25 29 4 -2 0
-18 -10 -34z m1362 6 c0 -14 -2 -25 -6 -25 -8 0 -18 48 -11 55 9 8 15 -4 17
-30z m2863 9 l23 -16 -23 -23 c-21 -21 -30 -22 -120 -20 -95 3 -118 8 -118 24
0 11 31 22 110 36 90 17 102 17 128 -1z m-2331 0 c-3 -3 -12 -4 -19 -1 -8 3
-5 6 6 6 11 1 17 -2 13 -5z m60 0 c-3 -3 -12 -4 -19 -1 -8 3 -5 6 6 6 11 1 17
-2 13 -5z m86 -1 c-7 -2 -19 -2 -25 0 -7 3 -2 5 12 5 14 0 19 -2 13 -5z m142
-3 c-3 -5 2 -9 12 -8 32 2 53 -2 53 -11 0 -12 -89 -11 -97 2 -3 5 1 13 8 18
19 12 32 11 24 -1z m72 4 c-3 -3 -12 -4 -19 -1 -8 3 -5 6 6 6 11 1 17 -2 13
-5z m-550 -10 c-3 -3 -12 -4 -19 -1 -8 3 -5 6 6 6 11 1 17 -2 13 -5z m658 -14
c3 -6 -4 -10 -17 -10 -18 0 -20 2 -8 10 19 12 18 12 25 0z m1135 -10 c0 -5
-19 -10 -42 -10 -32 0 -39 3 -28 10 20 13 70 13 70 0z m-1472 -17 c-10 -2 -26
-2 -35 0 -10 3 -2 5 17 5 19 0 27 -2 18 -5z m-1968 -12 c0 -6 -4 -13 -10 -16
-5 -3 -10 1 -10 9 0 9 5 16 10 16 6 0 10 -4 10 -9z m2255 -1 c16 -7 13 -9 -17
-9 -20 -1 -40 4 -43 9 -7 12 32 12 60 0z m-1753 -35 c-5 -39 -7 -41 -38 -24
l-26 14 23 5 c16 4 20 8 11 14 -20 12 -14 28 11 24 18 -2 21 -8 19 -33z m2048
14 c0 -6 -4 -7 -10 -4 -5 3 -10 11 -10 16 0 6 5 7 10 4 6 -3 10 -11 10 -16z
m1889 1 c24 -11 53 -20 64 -20 16 0 18 -3 9 -12 -9 -9 -24 -8 -65 5 -30 9 -84
17 -121 17 -42 0 -65 4 -61 10 3 6 16 8 28 5 13 -4 34 -2 47 4 36 14 50 13 99
-9z m-1168 -7 c28 -17 40 -43 19 -43 -5 0 -3 -8 6 -19 10 -11 24 -16 35 -14
13 4 19 0 19 -11 0 -9 -8 -16 -20 -16 -11 0 -20 4 -20 8 0 15 -92 43 -105 32
-8 -7 -17 -4 -30 10 -18 19 -17 20 6 20 19 0 21 2 9 10 -8 5 -25 10 -37 10
-25 0 -31 15 -10 23 28 12 101 6 128 -10z m-1866 -3 c3 -5 1 -10 -4 -10 -6 0
-11 5 -11 10 0 6 2 10 4 10 3 0 8 -4 11 -10z m-1405 -25 c0 -14 -4 -25 -10
-25 -5 0 -10 11 -10 25 0 14 5 25 10 25 6 0 10 -11 10 -25z m700 14 c0 -5 -21
-9 -47 -9 -32 0 -43 3 -34 9 18 12 81 12 81 0z m3130 2 c0 -6 -5 -13 -10 -16
-15 -9 -43 3 -35 15 8 13 45 13 45 1z m130 0 c0 -4 -5 -23 -11 -40 -8 -24 -9
-39 0 -57 6 -14 7 -24 1 -24 -16 0 -37 64 -32 98 3 23 10 32 23 32 11 0 19 -4
19 -9z m-189 -31 c18 0 28 -4 24 -10 -7 -11 -95 -9 -95 3 0 4 0 11 0 16 0 15
35 18 38 4 2 -7 17 -13 33 -13z m319 26 c0 -2 -11 -6 -25 -8 -13 -3 -22 -1
-19 3 5 9 44 13 44 5z m-2650 -67 c26 -48 26 -59 -2 -23 -13 16 -33 37 -45 47
-30 24 -29 38 2 24 13 -7 33 -28 45 -48z m1545 51 c4 -6 15 -8 26 -5 13 4 19
2 19 -9 0 -9 -9 -16 -20 -16 -11 0 -20 -4 -20 -10 0 -10 18 -14 58 -10 21 1
23 -2 17 -22 -10 -32 -15 -35 -28 -17 -9 11 -20 14 -39 8 -41 -11 -79 10 -76
41 2 14 9 24 16 22 7 -1 15 5 18 13 7 17 20 20 29 5z m685 6 c0 -11 -19 -15
-25 -6 -3 5 1 10 9 10 9 0 16 -2 16 -4z m600 -6 c0 -5 -2 -10 -4 -10 -3 0 -8
5 -11 10 -3 6 -1 10 4 10 6 0 11 -4 11 -10z m355 0 c3 -5 -1 -10 -10 -10 -9 0
-13 5 -10 10 3 6 8 10 10 10 2 0 7 -4 10 -10z m25 -36 c0 -17 -22 -14 -28 4
-2 7 3 12 12 12 9 0 16 -7 16 -16z m60 6 c0 -5 -6 -10 -14 -10 -8 0 -18 5 -21
10 -3 6 3 10 14 10 12 0 21 -4 21 -10z m-861 -58 c14 -19 76 -35 147 -36 91
-1 92 -3 100 -118 6 -77 5 -82 -10 -63 -8 11 -18 34 -22 52 -10 54 -84 90
-271 133 -48 11 -70 29 -55 45 9 9 104 -2 111 -13z m-674 -2 c3 -5 1 -10 -4
-10 -6 0 -11 5 -11 10 0 6 2 10 4 10 3 0 8 -4 11 -10z m200 0 c3 -5 1 -10 -4
-10 -6 0 -11 5 -11 10 0 6 2 10 4 10 3 0 8 -4 11 -10z m715 0 c0 -5 -4 -10
-10 -10 -5 0 -10 5 -10 10 0 6 5 10 10 10 6 0 10 -4 10 -10z m-2679 -60 c4 0
10 8 12 18 3 9 5 2 6 -15 1 -23 -4 -33 -14 -33 -19 0 -49 46 -39 61 5 9 10 6
17 -9 6 -12 14 -22 18 -22z m-1461 -29 c0 -6 -4 -13 -10 -16 -5 -3 -10 1 -10
9 0 9 5 16 10 16 6 0 10 -4 10 -9z m3310 -10 c0 -14 -18 -23 -30 -16 -6 4 -8
11 -5 16 8 12 35 12 35 0z m49 -36 l0 -20 -9 20 c-5 11 -9 27 -9 35 -1 13 0
13 9 0 5 -8 9 -24 9 -35z m-2766 -22 c-7 -2 -19 -2 -25 0 -7 3 -2 5 12 5 14 0
19 -2 13 -5z m-10 -30 c-7 -2 -19 -2 -25 0 -7 3 -2 5 12 5 14 0 19 -2 13 -5z
m31 -39 c4 -10 1 -14 -6 -12 -15 5 -23 28 -10 28 5 0 13 -7 16 -16z m3499 -24
c20 -24 22 -36 4 -43 -21 -8 -35 6 -35 36 1 32 8 34 31 7z m-4163 -180 c0 -5
-2 -10 -4 -10 -3 0 -8 5 -11 10 -3 6 -1 10 4 10 6 0 11 -4 11 -10z m709 -136
c10 -9 -35 -3 -49 6 -11 8 -7 9 15 4 17 -4 32 -8 34 -10z m-22 -30 c-3 -3 -12
-4 -19 -1 -8 3 -5 6 6 6 11 1 17 -2 13 -5z m66 -41 c-7 -2 -19 -2 -25 0 -7 3
-2 5 12 5 14 0 19 -2 13 -5z"/>
<path d="M1435 5680 c-4 -6 9 -10 32 -10 28 0 34 3 23 10 -20 13 -47 13 -55 0z"/>
<path d="M1645 5680 c-3 -5 -2 -10 4 -10 5 0 13 5 16 10 3 6 2 10 -4 10 -5 0
-13 -4 -16 -10z"/>
<path d="M1442 5639 c18 -7 33 -7 45 0 14 8 9 10 -27 10 -42 -1 -43 -1 -18
-10z"/>
<path d="M1689 5619 c13 -11 30 -18 37 -15 7 3 16 1 19 -4 4 -6 17 -10 31 -10
38 0 18 19 -27 26 -22 4 -42 11 -45 15 -3 5 -13 9 -22 9 -14 -1 -12 -5 7 -21z"/>
<path d="M1795 5550 c-3 -5 -1 -10 4 -10 6 0 11 5 11 10 0 6 -2 10 -4 10 -3 0
-8 -4 -11 -10z"/>
<path d="M1930 5520 c0 -5 7 -10 15 -10 8 0 15 -4 15 -10 0 -5 5 -10 10 -10 6
0 5 8 -2 20 -13 21 -38 27 -38 10z"/>
<path d="M1915 5490 c3 -5 8 -10 11 -10 2 0 4 5 4 10 0 6 -5 10 -11 10 -5 0
-7 -4 -4 -10z"/>
<path d="M1940 5455 c0 -8 4 -15 10 -15 5 0 7 7 4 15 -4 8 -8 15 -10 15 -2 0
-4 -7 -4 -15z"/>
<path d="M1420 5375 c0 -8 7 -15 15 -15 8 0 15 7 15 15 0 8 -7 15 -15 15 -8 0
-15 -7 -15 -15z"/>
<path d="M1470 5360 c0 -11 5 -20 10 -20 6 0 10 9 10 20 0 11 -4 20 -10 20 -5
0 -10 -9 -10 -20z"/>
<path d="M1430 5304 c0 -22 2 -25 15 -14 8 7 15 19 15 26 0 8 -7 14 -15 14
-10 0 -15 -10 -15 -26z"/>
<path d="M1485 5300 c-3 -5 -2 -10 4 -10 5 0 13 5 16 10 3 6 2 10 -4 10 -5 0
-13 -4 -16 -10z"/>
<path d="M1460 5260 c0 -5 7 -10 15 -10 8 0 15 5 15 10 0 6 -7 10 -15 10 -8 0
-15 -4 -15 -10z"/>
<path d="M1420 5227 c0 -5 7 -15 17 -22 14 -11 13 -13 -10 -19 -18 -4 -24 -11
-21 -21 5 -11 11 -12 25 -4 21 11 89 2 89 -12 0 -5 -12 -9 -27 -10 l-28 -1 28
-8 c16 -5 34 -7 41 -4 7 3 28 -4 47 -14 42 -24 89 -36 89 -22 0 5 -6 10 -14
10 -8 0 -16 7 -20 15 -3 8 -12 15 -20 15 -8 0 -23 11 -33 23 -10 13 -30 30
-43 37 -14 7 -27 16 -30 19 -10 12 -90 28 -90 18z"/>
<path d="M1340 5175 c0 -8 5 -15 10 -15 6 0 10 7 10 15 0 8 -4 15 -10 15 -5 0
-10 -7 -10 -15z"/>
<path d="M2144 5159 c-4 -13 -9 -27 -10 -31 -1 -5 -3 -11 -4 -15 -1 -5 -2 -11
-1 -15 0 -5 -6 -8 -14 -8 -9 0 -15 9 -15 24 0 36 -18 42 -26 9 -4 -15 -12 -32
-18 -36 -7 -5 -2 -7 12 -4 17 4 22 1 22 -14 0 -16 5 -18 25 -13 19 5 25 2 25
-11 0 -15 -7 -17 -40 -12 -43 6 -46 2 -28 -38 12 -27 44 -36 34 -10 -3 9 0 15
10 15 8 0 12 -4 9 -10 -11 -17 17 -11 32 8 13 16 13 16 11 -3 -2 -14 2 -20 15
-19 22 2 22 -19 1 -41 -13 -12 -14 -19 -5 -28 15 -15 14 -27 -4 -27 -8 0 -15
-4 -15 -10 0 -5 7 -10 15 -10 8 0 15 -7 15 -16 0 -12 -6 -15 -24 -10 -14 3
-28 2 -31 -4 -3 -5 3 -10 14 -10 30 0 51 -11 51 -26 0 -8 4 -14 9 -14 16 0 17
83 2 109 -13 20 -13 24 1 32 10 5 14 17 11 29 -4 14 0 20 11 20 20 0 21 24 2
43 -9 9 -16 39 -18 77 -3 58 -5 64 -26 65 -13 1 -27 8 -32 15 -6 9 -10 6 -16
-11z"/>
<path d="M1408 5073 c7 -3 16 -2 19 1 4 3 -2 6 -13 5 -11 0 -14 -3 -6 -6z"/>
<path d="M1615 5060 c3 -5 10 -10 16 -10 5 0 9 5 9 10 0 6 -7 10 -16 10 -8 0
-12 -4 -9 -10z"/>
<path d="M1930 5034 c0 -8 5 -12 10 -9 6 3 10 10 10 16 0 5 -4 9 -10 9 -5 0
-10 -7 -10 -16z"/>
<path d="M1370 5031 c0 -6 5 -13 10 -16 6 -3 10 1 10 9 0 9 -4 16 -10 16 -5 0
-10 -4 -10 -9z"/>
<path d="M1440 5002 c0 -14 11 -21 26 -15 21 8 17 23 -6 23 -11 0 -20 -4 -20
-8z"/>
<path d="M1410 4984 c0 -8 5 -12 10 -9 6 3 10 10 10 16 0 5 -4 9 -10 9 -5 0
-10 -7 -10 -16z"/>
<path d="M2125 4910 c3 -5 8 -10 11 -10 2 0 4 5 4 10 0 6 -5 10 -11 10 -5 0
-7 -4 -4 -10z"/>
<path d="M2230 4905 c0 -8 5 -15 10 -15 6 0 10 7 10 15 0 8 -4 15 -10 15 -5 0
-10 -7 -10 -15z"/>
<path d="M1380 4889 c14 -6 43 -13 65 -15 22 -3 55 -10 74 -14 41 -11 48 -8
26 10 -9 7 -36 12 -60 12 -24 -1 -47 2 -50 8 -3 5 -23 10 -43 9 -35 0 -36 -1
-12 -10z"/>
<path d="M2067 4873 c-11 -10 -8 -45 2 -38 6 3 9 14 8 25 -1 23 -1 22 -10 13z"/>
<path d="M2100 4873 c0 -4 5 -15 10 -23 8 -13 10 -13 10 2 0 9 -4 20 -10 23
-5 3 -10 3 -10 -2z"/>
<path d="M1585 4850 c-3 -5 -1 -10 4 -10 6 0 11 5 11 10 0 6 -2 10 -4 10 -3 0
-8 -4 -11 -10z"/>
<path d="M1644 4833 c28 -30 44 -26 26 6 -6 12 -20 21 -31 21 -19 0 -18 -2 5
-27z"/>
<path d="M2230 4845 c0 -8 4 -15 9 -15 5 0 11 7 15 15 3 9 0 15 -9 15 -8 0
-15 -7 -15 -15z"/>
<path d="M1187 4806 c-6 -15 1 -26 15 -26 4 0 8 9 8 20 0 23 -15 27 -23 6z"/>
<path d="M1909 4808 c-7 -33 -6 -59 3 -56 15 5 20 45 8 53 -6 3 -10 5 -11 3z"/>
<path d="M1845 4790 c3 -5 8 -10 11 -10 2 0 4 5 4 10 0 6 -5 10 -11 10 -5 0
-7 -4 -4 -10z"/>
<path d="M2160 4790 c0 -5 5 -10 10 -10 6 0 10 5 10 10 0 6 -4 10 -10 10 -5 0
-10 -4 -10 -10z"/>
<path d="M1315 4770 c3 -5 13 -10 21 -10 8 0 14 5 14 10 0 6 -9 10 -21 10 -11
0 -17 -4 -14 -10z"/>
<path d="M1862 4670 c0 -14 2 -19 5 -12 2 6 2 18 0 25 -3 6 -5 1 -5 -13z"/>
<path d="M1206 4535 c3 -22 9 -44 14 -50 4 -5 11 -20 14 -32 9 -30 81 -101
103 -103 50 -6 57 13 19 49 -16 15 -31 21 -44 17 -15 -5 -21 -1 -26 17 -3 13
-21 43 -39 68 -19 24 -37 51 -40 59 -4 8 -4 -3 -1 -25z"/>
<path d="M1710 4155 c0 -8 5 -15 10 -15 6 0 10 7 10 15 0 8 -4 15 -10 15 -5 0
-10 -7 -10 -15z"/>
<path d="M1663 4083 c-27 -28 -28 -33 -8 -33 9 0 20 12 26 26 12 34 9 35 -18
7z"/>
<path d="M1750 4071 c0 -10 7 -24 15 -31 16 -13 18 -8 9 28 -8 27 -24 29 -24
3z"/>
<path d="M1696 4045 c4 -8 10 -15 15 -15 5 0 9 7 9 15 0 8 -7 15 -15 15 -9 0
-12 -6 -9 -15z"/>
<path d="M1641 4006 c-10 -12 -8 -13 8 -9 12 3 21 9 21 14 0 14 -16 11 -29 -5z"/>
<path d="M1695 4010 c-3 -5 -1 -10 4 -10 6 0 11 5 11 10 0 6 -2 10 -4 10 -3 0
-8 -4 -11 -10z"/>
<path d="M1675 3970 c-3 -5 1 -10 9 -10 9 0 16 5 16 10 0 6 -4 10 -9 10 -6 0
-13 -4 -16 -10z"/>
<path d="M1633 3962 c-18 -12 20 -57 41 -49 22 9 11 27 -16 27 -14 0 -18 5
-14 15 6 17 5 18 -11 7z"/>
<path d="M1606 3905 c-10 -26 -7 -35 9 -35 17 0 19 18 6 38 -7 11 -10 10 -15
-3z"/>
<path d="M1527 3803 c-14 -13 -6 -24 15 -21 27 4 36 28 11 28 -11 0 -23 -3
-26 -7z"/>
<path d="M1570 3709 c0 -5 5 -7 10 -4 6 3 10 8 10 11 0 2 -4 4 -10 4 -5 0 -10
-5 -10 -11z"/>
<path d="M1640 3709 c0 -5 5 -7 10 -4 6 3 10 8 10 11 0 2 -4 4 -10 4 -5 0 -10
-5 -10 -11z"/>
<path d="M1340 2780 c0 -5 4 -10 9 -10 6 0 13 5 16 10 3 6 -1 10 -9 10 -9 0
-16 -4 -16 -10z"/>
<path d="M915 2626 c-16 -12 -10 -14 54 -20 40 -4 75 -5 79 -2 10 11 -8 20
-41 22 -18 0 -41 4 -53 7 -11 4 -28 1 -39 -7z"/>
<path d="M840 2589 c0 -5 5 -7 10 -4 6 3 10 8 10 11 0 2 -4 4 -10 4 -5 0 -10
-5 -10 -11z"/>
<path d="M931 2497 c-6 -8 -8 -17 -5 -20 10 -9 45 13 39 24 -9 13 -21 11 -34
-4z"/>
<path d="M1265 2410 c-3 -5 -2 -10 4 -10 5 0 13 5 16 10 3 6 2 10 -4 10 -5 0
-13 -4 -16 -10z"/>
<path d="M1256 2343 c-11 -11 -6 -23 8 -23 8 0 17 4 20 9 7 10 -19 23 -28 14z"/>
<path d="M1190 5471 c0 -6 5 -13 10 -16 6 -3 10 1 10 9 0 9 -4 16 -10 16 -5 0
-10 -4 -10 -9z"/>
<path d="M1190 5430 c-8 -5 -11 -12 -7 -16 4 -4 13 -2 19 4 15 15 7 24 -12 12z"/>
<path d="M1210 5370 c0 -5 5 -10 10 -10 6 0 10 5 10 10 0 6 -4 10 -10 10 -5 0
-10 -4 -10 -10z"/>
<path d="M1100 5170 c0 -5 5 -10 10 -10 6 0 10 5 10 10 0 6 -4 10 -10 10 -5 0
-10 -4 -10 -10z"/>
<path d="M1085 4459 c-10 -15 3 -25 16 -12 7 7 7 13 1 17 -6 3 -14 1 -17 -5z"/>
<path d="M1270 3530 c0 -5 4 -10 8 -10 5 0 13 -9 18 -20 9 -20 9 -20 22 1 8
12 9 18 4 15 -5 -3 -15 1 -22 9 -14 17 -30 20 -30 5z"/>
<path d="M1015 3510 c3 -5 11 -10 16 -10 6 0 7 5 4 10 -3 6 -11 10 -16 10 -6
0 -7 -4 -4 -10z"/>
<path d="M373 3369 c-18 -12 -33 -24 -33 -28 0 -4 19 -13 41 -20 34 -10 43
-10 50 1 8 12 13 4 10 -15 -1 -5 8 -11 19 -14 11 -3 20 -9 20 -14 0 -5 8 -9
17 -9 14 0 14 3 -4 23 -12 12 -30 38 -40 57 -24 43 -38 46 -80 19z m44 -25
c-3 -3 -12 -4 -19 -1 -8 3 -5 6 6 6 11 1 17 -2 13 -5z"/>
<path d="M330 3264 c0 -8 5 -12 10 -9 6 3 10 10 10 16 0 5 -4 9 -10 9 -5 0
-10 -7 -10 -16z"/>
<path d="M460 3091 c0 -6 5 -13 10 -16 6 -3 10 1 10 9 0 9 -4 16 -10 16 -5 0
-10 -4 -10 -9z"/>
<path d="M1793 3003 c-15 -30 -17 -53 -5 -53 8 0 32 49 32 67 0 22 -14 14 -27
-14z"/>
<path d="M1315 2983 c25 -23 121 -53 169 -52 41 0 46 2 29 9 -13 5 -23 13 -23
18 0 5 -24 13 -52 16 -29 4 -71 10 -93 13 -25 3 -36 2 -30 -4z"/>
<path d="M1830 2968 c0 -19 2 -20 10 -8 13 19 13 30 0 30 -5 0 -10 -10 -10
-22z"/>
<path d="M1600 2961 c0 -5 6 -14 14 -20 10 -9 15 -8 19 3 3 8 -1 17 -9 20 -21
8 -24 8 -24 -3z"/>
<path d="M1821 2913 c0 -25 1 -26 9 -8 12 27 12 35 0 35 -5 0 -10 -12 -9 -27z"/>
<path d="M214 2758 c4 -13 15 -62 25 -111 10 -48 21 -90 25 -95 13 -12 -6 160
-21 195 -15 37 -39 46 -29 11z"/>
<path d="M276 2503 c-3 -27 -8 -73 -10 -103 -2 -30 -2 -39 1 -20 2 19 8 44 13
55 12 27 20 115 10 115 -4 0 -11 -21 -14 -47z"/>
<path d="M5269 2060 c-9 -5 -24 -21 -33 -34 -15 -24 -14 -26 15 -55 25 -26 38
-31 78 -31 26 0 50 -3 54 -6 10 -10 176 -64 197 -64 10 0 22 -5 25 -10 4 -6
16 -8 28 -4 30 9 34 14 18 23 -21 13 -3 31 29 31 16 0 32 5 35 10 10 16 120
12 196 -7 68 -16 90 -32 47 -34 -13 0 -32 -3 -43 -6 -11 -3 -57 -6 -102 -8
-66 -2 -80 0 -76 12 3 8 12 12 20 9 8 -3 11 -1 8 4 -10 16 -45 12 -45 -5 0 -8
-9 -15 -20 -15 -11 0 -20 -4 -20 -8 0 -15 47 -31 79 -27 17 2 66 9 109 14 42
6 165 13 272 17 196 6 247 14 234 35 -5 9 -50 10 -158 6 -152 -5 -202 -1 -331
27 -83 18 -149 20 -173 5 -13 -8 -47 -6 -134 10 -64 12 -125 21 -135 21 -28 0
-2 -17 52 -33 50 -16 50 -16 14 -16 -20 -1 -54 6 -75 16 -22 9 -57 17 -79 18
-22 1 -50 3 -62 4 -18 1 -23 7 -23 30 0 39 13 45 49 26 17 -8 38 -15 48 -14
16 0 16 1 -2 8 -11 5 -33 20 -48 35 -15 14 -29 26 -30 26 -1 0 -9 -5 -18 -10z
m328 -156 c-3 -3 -12 -4 -19 -1 -8 3 -5 6 6 6 11 1 17 -2 13 -5z"/>
<path d="M1385 2040 c-3 -5 -2 -10 4 -10 5 0 13 5 16 10 3 6 2 10 -4 10 -5 0
-13 -4 -16 -10z"/>
<path d="M1636 1960 c-9 -22 -16 -56 -16 -75 0 -18 -4 -36 -9 -39 -5 -3 -12
-34 -16 -68 -4 -35 -11 -81 -17 -103 -12 -46 -14 -131 -4 -163 6 -18 3 -22
-13 -22 -26 0 -27 -14 -2 -37 10 -10 24 -36 31 -58 6 -22 27 -71 46 -110 19
-38 47 -117 63 -175 17 -58 30 -93 30 -78 1 37 19 45 27 11 4 -15 10 -32 14
-38 9 -13 28 -141 34 -230 4 -70 51 -282 88 -404 10 -35 28 -109 38 -165 38
-198 43 -216 54 -205 7 6 14 259 8 307 -8 77 -22 44 -22 -54 0 -104 -13 -119
-24 -25 -4 32 -20 107 -36 167 -16 60 -30 121 -30 137 0 15 -4 27 -8 27 -13 0
-41 135 -48 225 -5 70 -46 331 -75 480 -19 102 -21 134 -9 185 l12 51 25 -22
c43 -41 81 -137 86 -214 2 -38 19 -142 36 -230 18 -88 35 -204 38 -257 3 -54
10 -98 16 -98 12 0 1 153 -19 270 -42 234 -45 262 -33 276 6 7 9 21 5 29 -3 8
-2 15 2 15 16 0 41 -68 47 -128 4 -34 12 -65 17 -68 7 -5 8 12 4 52 -11 100
-29 198 -37 210 -5 6 -16 59 -26 117 -10 66 -22 107 -29 107 -13 0 -24 44 -24
96 0 22 -5 34 -16 36 -14 3 -30 35 -51 101 -11 34 13 16 30 -23 21 -49 40 -44
31 8 -7 38 -20 58 -86 134 -21 23 -38 46 -38 51 0 14 -30 40 -38 32 -4 -4 -1
-10 6 -12 15 -6 16 -35 1 -50 -9 -9 -8 -18 5 -38 l17 -26 -32 3 c-43 4 -58 43
-35 89 19 37 19 39 7 39 -5 0 -16 -18 -25 -40z m59 -150 c3 -5 2 -10 -4 -10
-5 0 -13 5 -16 10 -3 6 -2 10 4 10 5 0 13 -4 16 -10z m-48 -202 c-3 -8 -6 -5
-6 6 -1 11 2 17 5 13 3 -3 4 -12 1 -19z m224 -148 l-9 -55 -1 52 c0 28 2 60 6
70 12 30 15 -6 4 -67z"/>
<path d="M1145 1980 c-33 -4 -51 -8 -40 -9 60 -8 73 -7 105 5 38 14 28 14 -65
4z"/>
<path d="M1611 1974 c0 -11 3 -14 6 -6 3 7 2 16 -1 19 -3 4 -6 -2 -5 -13z"/>
<path d="M1576 1914 c-3 -9 -6 -23 -6 -32 0 -21 15 -5 25 26 7 25 -9 31 -19 6z"/>
<path d="M1216 1891 c5 -4 47 -20 94 -35 46 -15 91 -32 99 -39 11 -9 15 -9 18
1 3 6 11 12 19 12 8 0 14 5 14 10 0 6 -10 10 -23 10 -13 0 -57 11 -97 25 -72
24 -144 34 -124 16z"/>
<path d="M4262 1873 c-7 -2 -17 -14 -23 -25 -10 -19 -10 -19 15 -3 14 10 26
21 26 26 0 5 -1 9 -2 8 -2 0 -9 -3 -16 -6z"/>
<path d="M560 1816 c0 -2 7 -6 15 -10 8 -3 15 -1 15 4 0 6 -7 10 -15 10 -8 0
-15 -2 -15 -4z"/>
<path d="M1880 1716 c0 -50 3 -67 13 -63 8 3 11 21 9 58 -5 81 -22 85 -22 5z"/>
<path d="M1542 1758 c-18 -18 -16 -88 3 -88 17 0 31 62 18 84 -7 13 -12 13
-21 4z"/>
<path d="M1445 1749 c-4 -6 -5 -12 -2 -15 2 -3 7 2 10 11 7 17 1 20 -8 4z"/>
<path d="M4670 1703 c0 -14 15 -29 34 -36 16 -6 18 -14 13 -50 -3 -24 -9 -50
-12 -58 -4 -10 7 -22 35 -38 22 -12 50 -35 61 -51 12 -15 31 -33 44 -40 13 -7
31 -28 41 -46 10 -19 24 -34 31 -34 18 0 16 49 -2 56 -19 8 -20 34 0 34 8 0
12 -6 10 -12 -3 -7 5 -24 16 -38 14 -17 19 -19 15 -7 -4 12 2 20 19 27 14 5
25 12 25 14 0 3 -24 21 -53 40 -41 27 -57 45 -65 73 -21 67 -47 99 -106 127
-30 14 -58 31 -61 36 -7 12 -45 14 -45 3z m145 -83 c17 0 58 -69 51 -87 -3 -8
-10 -11 -16 -8 -6 3 -13 -1 -16 -9 -9 -23 -54 -21 -54 2 0 9 -9 23 -20 30 -11
7 -20 18 -20 25 0 23 32 59 47 53 8 -3 21 -6 28 -6z m83 -148 c4 -26 -22 -31
-32 -6 -10 26 -7 36 12 32 9 -2 18 -13 20 -26z"/>
<path d="M3695 1644 c-17 -26 -14 -54 5 -54 5 0 10 11 10 24 0 14 5 28 10 31
6 3 10 10 10 16 0 17 -18 9 -35 -17z"/>
<path d="M1360 1650 c0 -5 5 -10 10 -10 6 0 10 5 10 10 0 6 -4 10 -10 10 -5 0
-10 -4 -10 -10z"/>
<path d="M3906 1618 c-5 -31 -2 -51 11 -75 10 -18 21 -33 25 -33 5 0 8 -7 8
-15 0 -8 4 -23 9 -33 18 -34 40 -149 45 -239 4 -88 15 -121 52 -160 6 -6 38
-15 70 -18 57 -6 122 5 210 37 25 9 39 9 56 1 38 -19 67 -25 88 -18 23 7 27
25 6 25 -26 0 -30 40 -7 64 15 16 21 35 21 69 0 48 -14 63 -25 27 -3 -11 -15
-20 -25 -20 -10 0 -22 -4 -25 -10 -3 -5 -15 -10 -26 -10 -11 0 -18 -4 -14 -9
6 -11 -56 -31 -100 -31 -16 0 -39 -7 -49 -15 -11 -8 -33 -15 -48 -15 -25 0
-27 2 -19 19 12 21 86 43 119 34 12 -3 22 -3 22 0 0 10 -26 53 -52 88 -16 20
-28 41 -28 47 0 7 -7 12 -16 12 -19 0 -15 -5 -129 152 -47 64 -94 119 -104
123 -10 3 -26 14 -36 25 -26 29 -32 25 -39 -22z m182 -338 c25 -21 23 -60 -3
-60 -32 0 -45 13 -45 46 0 39 14 43 48 14z m42 -140 c12 -8 9 -10 -13 -10 -16
0 -26 4 -22 10 8 12 16 12 35 0z"/>
<path d="M4681 1634 c0 -11 3 -14 6 -6 3 7 2 16 -1 19 -3 4 -6 -2 -5 -13z"/>
<path d="M3785 1591 c8 -17 19 -33 25 -36 5 -3 10 -15 10 -25 0 -10 5 -22 10
-25 21 -13 9 41 -15 69 -14 16 -25 33 -25 38 0 4 -5 8 -10 8 -6 0 -4 -13 5
-29z"/>
<path d="M4413 1591 c4 -29 17 -39 17 -13 0 11 -5 24 -10 27 -6 4 -9 -2 -7
-14z"/>
<path d="M1404 1589 c-3 -6 6 -22 22 -35 34 -28 38 -28 54 -9 10 12 6 18 -22
35 -38 23 -44 24 -54 9z"/>
<path d="M4221 1563 c-16 -56 -14 -89 9 -133 11 -21 17 -46 14 -54 -3 -9 -2
-16 4 -16 17 0 23 60 7 84 -10 14 -14 44 -13 84 2 74 -7 88 -21 35z"/>
<path d="M4650 1553 c0 -22 2 -25 10 -13 13 20 13 40 0 40 -5 0 -10 -12 -10
-27z"/>
<path d="M3620 1560 c0 -18 32 -63 67 -95 36 -33 41 -59 18 -89 -20 -26 -19
-71 1 -90 30 -30 60 -16 74 35 13 43 13 59 0 59 -5 0 -10 -8 -10 -18 0 -18
-18 -42 -31 -42 -3 0 -3 20 2 45 11 60 -7 151 -26 135 -10 -8 -18 -3 -34 24
-24 39 -61 60 -61 36z"/>
<path d="M418 1538 c12 -12 25 -19 28 -15 4 4 -1 14 -12 22 -29 22 -41 18 -16
-7z"/>
<path d="M322 1519 c2 -7 10 -15 17 -17 8 -3 12 1 9 9 -2 7 -10 15 -17 17 -8
3 -12 -1 -9 -9z"/>
<path d="M4390 1493 c-19 -15 -39 -33 -43 -40 -4 -7 -19 -24 -33 -38 -23 -23
-32 -45 -16 -45 4 0 18 16 32 35 14 18 42 43 62 54 35 18 38 19 48 3 8 -14 10
-10 8 17 -4 44 -15 47 -58 14z"/>
<path d="M465 1500 c3 -5 14 -10 23 -10 15 0 15 2 2 10 -20 13 -33 13 -25 0z"/>
<path d="M329 1488 c0 -1 -2 -20 -4 -41 -4 -32 -2 -37 10 -27 11 9 17 4 31
-25 9 -20 25 -42 36 -48 10 -7 18 -17 18 -24 0 -15 77 -73 97 -73 7 0 13 5 13
10 0 6 -5 10 -10 10 -18 0 -70 43 -70 58 0 12 4 12 23 -2 89 -65 186 -121 194
-112 10 9 -9 27 -23 22 -8 -3 -14 -1 -14 4 0 5 -14 17 -32 26 -33 17 -35 19
-88 62 -19 16 -45 32 -57 36 -13 4 -23 14 -23 22 0 8 -6 14 -13 14 -18 0 -54
40 -59 64 -2 16 -27 36 -29 24z"/>
<path d="M4636 1465 c-3 -8 -1 -15 4 -15 6 0 10 7 10 15 0 8 -2 15 -4 15 -2 0
-6 -7 -10 -15z"/>
<path d="M1275 1390 c-3 -5 1 -10 9 -10 8 0 18 5 21 10 3 6 -1 10 -9 10 -8 0
-18 -4 -21 -10z"/>
<path d="M4968 1344 c6 -3 12 -12 12 -21 0 -8 6 -13 13 -10 22 7 13 32 -13 34
-14 1 -19 0 -12 -3z"/>
<path d="M725 1320 c-16 -18 -16 -20 -1 -26 9 -3 23 -4 31 0 8 3 20 -1 28 -8
7 -7 24 -17 37 -20 14 -4 41 -15 60 -23 36 -17 195 -37 211 -27 5 3 6 11 2 17
-4 7 0 6 10 -2 25 -20 62 -7 63 23 2 24 0 25 -40 20 -53 -8 -228 22 -283 47
-55 24 -95 24 -118 -1z"/>
<path d="M4630 1321 c0 -6 5 -13 10 -16 6 -3 10 1 10 9 0 9 -4 16 -10 16 -5 0
-10 -4 -10 -9z"/>
<path d="M386 1254 c-4 -9 -2 -22 4 -29 5 -6 7 -15 4 -18 -10 -10 35 -78 81
-123 23 -23 82 -68 132 -100 50 -33 99 -64 110 -71 16 -10 14 -12 -14 -12 -41
-1 -44 -21 -3 -21 17 0 30 -3 30 -7 -1 -20 -51 -66 -72 -68 -13 -1 -24 -9 -26
-18 -3 -14 4 -17 35 -17 22 0 43 -4 48 -9 6 -5 21 -11 34 -13 35 -4 38 -26 4
-33 -15 -3 -50 -12 -78 -20 -27 -8 -59 -16 -70 -17 -39 -6 -22 -33 25 -40 66
-10 100 -19 100 -28 0 -16 -32 -33 -68 -37 -20 -2 -52 -13 -70 -24 -18 -10
-41 -19 -52 -19 -20 0 -32 -21 -22 -37 4 -5 24 -10 44 -11 44 -2 112 -28 104
-40 -3 -5 -27 -7 -53 -5 -57 5 -89 -11 -59 -29 18 -10 18 -11 -5 -24 -13 -7
-36 -13 -51 -14 -45 0 -65 -71 -33 -114 23 -30 18 -36 -24 -36 -44 0 -75 -25
-50 -41 8 -5 29 -9 47 -9 40 0 47 -16 28 -60 -12 -30 -19 -35 -53 -37 -21 -1
-55 -5 -76 -8 -49 -9 -115 9 -155 44 -27 22 -32 34 -32 71 0 40 -5 50 -45 88
-24 23 -49 42 -55 42 -6 0 -13 -13 -16 -29 -4 -17 -12 -32 -20 -35 -11 -4 -14
-32 -14 -126 0 -66 4 -120 8 -120 4 0 13 28 18 63 6 34 14 71 18 82 6 16 6 17
-3 5 -8 -11 -11 -3 -11 37 0 28 4 54 9 57 17 11 43 -34 56 -93 12 -57 11 -62
-11 -98 -13 -21 -24 -41 -24 -45 0 -5 104 -8 230 -8 234 0 235 0 231 36 -3 28
131 48 191 28 19 -6 18 -8 -15 -23 -23 -11 -33 -21 -28 -29 7 -11 221 -11 389
1 24 1 46 -1 48 -5 3 -5 73 -8 155 -8 149 0 150 0 159 24 7 19 17 25 54 28 30
2 47 -1 51 -9 2 -7 11 -13 20 -13 21 0 19 -17 -2 -23 -12 -3 -9 -5 8 -6 23 -1
28 4 33 33 4 19 1 45 -6 60 -10 23 -17 27 -47 25 -20 -2 -53 -2 -73 -1 -33 2
-38 5 -38 26 0 13 -14 37 -35 57 -29 28 -35 41 -35 77 0 54 -22 172 -32 172
-5 0 -8 6 -8 13 0 18 -39 53 -67 61 -31 10 -143 -20 -168 -44 -12 -11 -26 -20
-32 -20 -7 0 -15 -9 -18 -20 -4 -11 -23 -31 -42 -45 -32 -21 -38 -22 -56 -10
-10 7 -25 11 -32 9 -7 -3 -28 4 -46 16 l-34 22 48 -6 47 -6 0 36 c0 19 6 36
12 38 7 3 27 8 43 12 l30 8 -35 5 c-22 4 -38 14 -46 28 -6 13 -19 32 -29 43
-17 19 -17 20 9 30 22 8 81 8 164 1 6 -1 12 -12 12 -26 0 -42 16 -28 17 16 2
40 1 40 -27 34 -24 -5 -37 -2 -79 22 -2 2 2 10 10 19 13 16 11 17 -14 10 -24
-6 -30 -3 -34 13 -4 14 -17 22 -42 27 -67 11 -56 13 35 8 63 -5 98 -3 114 6
20 11 25 10 41 -11 16 -21 19 -22 24 -7 11 29 1 53 -20 49 -37 -6 -115 -5
-122 3 -4 4 -1 11 7 16 11 7 9 11 -12 19 -14 5 -29 15 -33 20 -9 15 28 14 42
0 9 -9 19 -9 40 -1 15 6 46 12 68 14 33 3 40 0 37 -14 -5 -32 15 -19 22 13 7
36 -1 54 -17 41 -23 -18 -69 -23 -104 -11 -20 6 -31 14 -27 18 25 17 9 29 -49
35 -71 8 -159 31 -200 53 -16 8 -31 13 -34 10 -10 -11 10 -29 56 -49 l46 -21
-30 -9 c-28 -9 -40 -3 -130 54 -57 35 -130 93 -168 132 -63 64 -68 73 -62 102
4 22 1 37 -10 48 -20 20 -21 20 -29 0z m371 -430 c-3 -3 -12 -4 -19 -1 -8 3
-5 6 6 6 11 1 17 -2 13 -5z m552 -455 c18 -53 14 -123 -9 -144 -17 -16 -18
-21 -7 -34 8 -9 17 -24 20 -34 4 -9 16 -17 28 -17 38 0 14 -25 -27 -28 -31 -2
-36 0 -21 8 26 16 11 31 -19 20 -14 -6 -41 -10 -59 -10 -29 0 -36 4 -41 25 -4
15 0 39 10 59 9 19 16 41 16 49 0 9 4 18 9 22 5 3 13 20 17 37 16 77 63 103
83 47z m-384 -3 c13 -2 21 -11 23 -29 3 -28 -32 -107 -48 -107 -6 0 -10 -21
-10 -47 -1 -38 -5 -51 -23 -64 -28 -20 -74 -32 -89 -23 -6 4 -37 6 -68 5 -45
-2 -59 2 -74 18 -17 19 -18 25 -6 62 l14 41 108 -4 c66 -2 109 1 110 7 2 6
-16 11 -38 13 -33 2 -43 8 -47 24 -8 31 3 78 19 78 21 0 17 16 -8 28 -22 11
23 10 137 -2z m-304 -16 c10 0 19 -7 19 -15 0 -8 -4 -15 -10 -15 -5 0 -10 5
-10 11 0 5 -8 9 -17 8 -32 -3 -44 1 -38 12 4 6 14 8 22 5 8 -3 23 -6 34 -6z
m122 -52 c22 -11 22 -12 -7 -19 -31 -8 -61 5 -50 22 7 12 31 11 57 -3z m-93
-2 c0 -3 -4 -8 -10 -11 -5 -3 -10 -1 -10 4 0 6 5 11 10 11 6 0 10 -2 10 -4z
m748 -218 c4 -29 -17 -51 -37 -38 -12 7 -12 13 -1 39 15 36 34 36 38 -1z"/>
<path d="M540 1233 c1 -12 56 -44 155 -91 50 -24 104 -50 120 -58 17 -8 66
-24 109 -34 63 -16 86 -18 123 -9 96 21 94 41 -2 29 -60 -8 -95 -1 -200 36
-23 8 -50 14 -61 14 -11 0 -27 9 -37 20 -9 11 -27 20 -39 20 -12 0 -52 18 -89
40 -70 41 -79 45 -79 33z"/>
<path d="M450 1213 c0 -5 14 -23 31 -40 28 -31 69 -44 69 -23 0 6 -7 10 -16
10 -8 0 -29 14 -46 30 -31 31 -38 35 -38 23z"/>
<path d="M564 1115 c21 -16 32 -13 21 4 -3 6 -14 11 -23 11 -15 -1 -15 -2 2
-15z"/>
<path d="M1987 967 c5 -80 18 -216 42 -452 11 -104 21 -235 23 -290 l2 -100 5
115 c6 115 1 210 -20 390 -6 52 -15 131 -20 175 -5 44 -13 110 -17 147 -10 86
-19 96 -15 15z"/>
<path d="M1151 988 c-11 -29 6 -68 20 -47 12 19 11 69 -1 69 -6 0 -14 -10 -19
-22z"/>
<path d="M1777 570 c3 -11 10 -23 16 -27 7 -4 8 0 4 11 -4 10 -7 22 -7 27 0 5
-4 9 -9 9 -5 0 -7 -9 -4 -20z"/>
<path d="M1010 494 c0 -28 15 -25 23 6 3 13 0 20 -9 20 -8 0 -14 -10 -14 -26z"/>
<path d="M1891 104 c0 -11 3 -14 6 -6 3 7 2 16 -1 19 -3 4 -6 -2 -5 -13z"/>
<path d="M2047 78 c-3 -18 -8 -43 -12 -55 -7 -21 -4 -23 26 -23 29 1 31 2 16
11 -15 9 -17 18 -11 55 4 27 2 44 -4 44 -5 0 -12 -15 -15 -32z"/>
<path d="M1920 15 c7 -8 17 -15 22 -15 6 0 5 7 -2 15 -7 8 -17 15 -22 15 -6 0
-5 -7 2 -15z"/>
</g>
</svg>
